<?xml version="1.0" encoding="UTF-8"?><svg id="Layer_1" xmlns="http://www.w3.org/2000/svg" viewBox="0 0 552 147.19"><path d="M91.07,51.32l7.6-13.16.6.34,11.71-20.28h2.19l1.09,1.89-11.71,20.28.6.34-7.6,13.16c-1.39-1.01-2.88-1.88-4.47-2.58ZM93.92,35.42l-.31-.18,4.56-17.01h-4.28l-3.99,14.87-.31-.18-4.46,16.63c1.61.26,3.17.68,4.66,1.24l4.12-15.38ZM50.79,45.62l12.01,12.01c.75-.87,1.57-1.68,2.43-2.43l-11.35-11.35.93-.53-12.71-12.71-2.85,4.94,10.63,10.63.93-.53ZM83.43,18.23h-4.48v31.11c1.66-.15,3.23-.11,4.48,0v-31.11ZM117.78,49.19l-17.05,9.84c1.13,1.51,2.08,3.16,2.84,4.92l17.05-9.84v-1.49l9.3-5.37-1.55-2.68-9.3,5.37-1.29-.75ZM59.84,40.4l7.57,13.11c1.04-.71,2.13-1.35,3.28-1.9l-7.56-13.1.6-.34-11.51-19.93h-2.98l-1.49,2.58,11.51,19.93.6-.34ZM68.78,35.24l4.14,15.44c1.28-.46,2.62-.82,3.99-1.06l-4.42-16.51.31-.18-3.94-14.69h-4.99l4.61,17.19.31-.18ZM107.59,43.31l-11.23,11.23c1.44,1.15,2.75,2.45,3.89,3.89l12.27-12.27-.93-.53,11.02-11.02-1.78-3.09-12.32,12.32-.93-.53ZM120.62,93.08l-17.05-9.84c-.76,1.76-1.71,3.41-2.84,4.92l17.05,9.84,1.29-.75,9.3,5.37,1.55-2.68-9.3-5.37v-1.49ZM120.62,60l-16.82,4.51c.72,1.79,1.23,3.68,1.51,5.65l15.31-4.1v-1.6l16.65-4.46-1.43-2.47-15.23,4.08v-1.6ZM120.62,81.13l-15.31-4.1c-.28,1.97-.79,3.86-1.51,5.65l16.82,4.51v-1.6l15.23,4.08,1.43-2.47-16.66-4.46v-1.6ZM144.43,72.39h-23.81v-1.89h-15.26c.29,2.29.22,4.48,0,6.2h15.26v-1.89h23.81l.7-1.2-.7-1.2ZM93.92,111.77l-4.12-15.38c-1.49.56-3.05.98-4.66,1.24l4.46,16.63.31-.18,3.99,14.87h4.28l-4.56-17.01.31-.18ZM41.77,52.62l17.59,10.16c.46-.93.98-1.83,1.55-2.68l-17.59-10.16,1.29-.75-9.94-5.74-2.84,4.92,9.94,5.74v-1.49ZM78.96,97.85v31.11s4.48,0,4.48,0v-31.11c-1.52.14-3.08.13-4.48,0ZM112.52,101.03l-12.27-12.27c-1.15,1.44-2.45,2.75-3.89,3.89l11.23,11.23.93-.53,12.32,12.32,1.78-3.09-11.02-11.02.93-.53ZM72.92,96.51l-4.14,15.44-.31-.18-4.61,17.19h4.99l3.94-14.69-.31-.18,4.42-16.51c-1.37-.24-2.71-.6-3.99-1.06ZM103.14,106.45l-7.6-13.16c-1.39,1.01-2.88,1.88-4.47,2.58l7.6,13.16.6-.34,11.71,20.28h2.19l1.09-1.89-11.71-20.28.6-.34ZM41.77,74.8h15.09c-.04-.86-.03-1.76,0-2.41h-15.09v-1.89h-22.72l-1.79,3.1,1.79,3.1h22.72v-1.89ZM41.77,64.45l15.57,4.17c.19-.91.43-1.79.72-2.66l-16.28-4.36v-1.6l-14.43-3.87-3.03,5.25,17.46,4.68v-1.6ZM41.77,85.58l16.28-4.36c-.29-.87-.53-1.75-.72-2.66l-15.57,4.17v-1.6l-17.46,4.68,3.03,5.25,14.43-3.87v-1.6ZM53.88,103.35l11.35-11.35c-.87-.75-1.68-1.57-2.43-2.43l-12.01,12.01-.93-.53-10.63,10.63,2.85,4.94,12.71-12.71-.93-.53ZM43.32,97.25l17.59-10.16c-.57-.86-1.09-1.75-1.55-2.68l-17.59,10.16v-1.49l-9.94,5.74,2.84,4.92,9.94-5.74-1.29-.75ZM70.69,95.58c-1.15-.55-2.24-1.19-3.28-1.9l-7.57,13.11-.6-.34-11.51,19.93,1.49,2.58h2.98l11.51-19.93-.6-.34,7.56-13.1ZM169.63,47.4h19.3c12.41,0,19.87,5.57,19.87,16.82s-7.46,16.82-19.87,16.82h-12.34v18.76h-6.96v-52.39ZM189.14,74.83c8.07,0,12.48-3.72,12.48-10.61s-4.41-10.61-12.48-10.61h-12.55v21.22h12.55ZM253.39,81.02h-27.44v18.76h-6.96v-52.39h6.96v27.42h27.44v-27.42h6.96v52.39h-6.96v-18.76ZM287.31,47.4h14.27l18.82,52.39h-7.45l-6.7-18.81h-23.61l-6.7,18.81h-7.45l18.82-52.39ZM304.07,74.82l-9.59-27.15-9.65,27.15h19.24ZM411.83,47.4h14.27l18.82,52.39h-7.45l-6.7-18.81h-23.61l-6.7,18.81h-7.45l18.82-52.39ZM428.59,74.82l-9.59-27.15-9.65,27.15h19.24ZM377.91,47.4h6.96v52.39h-6.96v-52.39ZM368.79,99.79l-11.7-20.08c6.76-2.25,10.6-7.38,10.6-15.49,0-11.24-7.46-16.82-19.87-16.82h-19.3v52.39h6.96v-18.76h14.24l10.92,18.76h8.13ZM335.49,74.83v-21.22h12.55c8.07,0,12.48,3.72,12.48,10.61s-4.41,10.61-12.48,10.61h-12.55ZM457.39,47.4v11.33h-2.2v-4.93h-4.97v4.93h-2.2v-11.33h2.2v4.5h4.97v-4.5h2.2ZM465.34,47.4h7.57v1.89h-5.37v2.49h4.3v1.91h-4.3v3.12h5.55v1.91h-7.75v-11.33ZM483.95,47.4h2.05l4.35,11.33h-2.26l-.92-2.51h-4.38l-.92,2.51h-2.27l4.35-11.33ZM483.48,54.35h3.01l-1.5-4.08-1.5,4.08ZM497.26,47.4h2.2v9.42h5.26v1.91h-7.46v-11.33ZM512.82,49.29h-3.41v-1.89h9.03v1.89h-3.41v9.43h-2.2v-9.43ZM534.74,47.4v11.33h-2.2v-4.93h-4.97v4.93h-2.2v-11.33h2.2v4.5h4.97v-4.5h2.2Z"/></svg>